<svg xmlns="http://www.w3.org/2000/svg" viewBox="0 0 48 48" width="48" height="48">
  <defs>
    <linearGradient id="shieldGradient48" x1="0%" y1="0%" x2="100%" y2="100%">
      <stop offset="0%" style="stop-color:#8caaee;stop-opacity:1" />
      <stop offset="100%" style="stop-color:#85c1dc;stop-opacity:1" />
    </linearGradient>

    <radialGradient id="glowGradient48" cx="50%" cy="50%" r="50%">
      <stop offset="0%" style="stop-color:#99d1db;stop-opacity:0.4" />
      <stop offset="100%" style="stop-color:#303446;stop-opacity:0" />
    </radialGradient>

    <filter id="shadow48" x="-50%" y="-50%" width="200%" height="200%">
      <feGaussianBlur in="SourceAlpha" stdDeviation="1"/>
      <feOffset dx="0" dy="1.5" result="offsetblur"/>
      <feComponentTransfer>
        <feFuncA type="linear" slope="0.3"/>
      </feComponentTransfer>
      <feMerge>
        <feMergeNode/>
        <feMergeNode in="SourceGraphic"/>
      </feMerge>
    </filter>
  </defs>

  <!-- Background -->
  <circle cx="24" cy="24" r="23" fill="#303446" stroke="#414559" stroke-width="1.5"/>
  <circle cx="24" cy="24" r="21" fill="url(#glowGradient48)" opacity="0.6"/>

  <!-- Shield -->
  <path d="M24 6 C24 6, 15 9, 15 9 L15 19.5 C15 27, 19.5 33, 24 39 C28.5 33, 33 27, 33 19.5 L33 9 C33 9, 24 6, 24 6 Z"
        fill="url(#shieldGradient48)"
        stroke="#99d1db"
        stroke-width="0.8"
        opacity="0.95"
        filter="url(#shadow48)"/>

  <!-- Inner shield accent -->
  <path d="M24 9 C24 9, 17.5 11.5, 17.5 11.5 L17.5 19.5 C17.5 25.5, 21 31, 24 35.5 C27 31, 30.5 25.5, 30.5 19.5 L30.5 11.5 C30.5 11.5, 24 9, 24 9 Z"
        fill="none"
        stroke="#c6d0f5"
        stroke-width="0.5"
        opacity="0.3"/>

  <!-- Server stack -->
  <g transform="translate(24, 19.5)">
    <!-- Server 1 -->
    <rect x="-6" y="-6" width="12" height="2.7" rx="0.6" fill="#a6d189" stroke="#81c8be" stroke-width="0.3"/>
    <circle cx="3.8" cy="-4.65" r="0.6" fill="#c6d0f5"/>
    <rect x="-5.2" y="-5.1" width="6.8" height="0.9" rx="0.2" fill="#303446" opacity="0.6"/>

    <!-- Server 2 -->
    <rect x="-6" y="-2.1" width="12" height="2.7" rx="0.6" fill="#8caaee" stroke="#85c1dc" stroke-width="0.3"/>
    <circle cx="3.8" cy="-0.75" r="0.6" fill="#c6d0f5"/>
    <rect x="-5.2" y="-1.2" width="6.8" height="0.9" rx="0.2" fill="#303446" opacity="0.6"/>

    <!-- Server 3 -->
    <rect x="-6" y="1.8" width="12" height="2.7" rx="0.6" fill="#81c8be" stroke="#99d1db" stroke-width="0.3"/>
    <circle cx="3.8" cy="3.15" r="0.6" fill="#c6d0f5"/>
    <rect x="-5.2" y="2.7" width="6.8" height="0.9" rx="0.2" fill="#303446" opacity="0.6"/>
  </g>

  <!-- Monitoring pulse -->
  <g transform="translate(0, 1.5)">
    <path d="M9 40.5 L12 39 L13.5 42 L15.8 36 L18 42 L19.5 39 L22.5 40.5"
          stroke="#a6d189"
          stroke-width="1.2"
          fill="none"
          stroke-linecap="round"
          stroke-linejoin="round"
          opacity="0.9"/>
    <path d="M25.5 40.5 L28.5 39 L30 42 L32.2 36 L34.5 42 L36 39 L39 40.5"
          stroke="#a6d189"
          stroke-width="1.2"
          fill="none"
          stroke-linecap="round"
          stroke-linejoin="round"
          opacity="0.9"/>
  </g>

  <!-- Accent dots -->
  <circle cx="9" cy="9" r="1" fill="#babbf1" opacity="0.4"/>
  <circle cx="39" cy="9" r="1" fill="#babbf1" opacity="0.4"/>
  <circle cx="9" cy="39" r="1" fill="#babbf1" opacity="0.3"/>
  <circle cx="39" cy="39" r="1" fill="#babbf1" opacity="0.3"/>
</svg>
